<?xml version="1.0" standalone="no"?><!DOCTYPE svg PUBLIC "-//W3C//DTD SVG 1.1//EN" "http://www.w3.org/Graphics/SVG/1.1/DTD/svg11.dtd"><svg t="1615814285518" class="icon" viewBox="0 0 1024 1024" version="1.1" xmlns="http://www.w3.org/2000/svg" p-id="4925" xmlns:xlink="http://www.w3.org/1999/xlink" width="200" height="200"><defs><style type="text/css"></style></defs><path d="M866.304 291.84H209.92v-0.512c-17.408-2.56-30.72-17.408-30.72-35.328 0-17.92 13.312-32.768 30.72-35.328V220.16h481.28c11.264 0 20.48-9.216 20.48-20.48s-9.216-20.48-20.48-20.48H209.92v0.512c-36.352 2.048-66.048 30.208-70.656 66.048-0.512 1.536-1.024 3.584-1.024 5.12v568.32c0 11.264 9.216 20.48 20.48 20.48h706.56c11.264 0 20.48-9.216 20.48-20.48V311.296c0-10.752-8.704-19.456-19.456-19.456z m-21.504 46.08v430.08c0 11.264-9.216 30.72-20.48 30.72H199.68c-11.264 0-20.48-9.216-20.48-20.48V323.584c9.216 5.12 19.456 8.192 30.72 8.704v0.512h634.88v5.12z" p-id="4926"></path><path d="M701.44 732.16H322.56c-11.264 0-20.48-9.216-20.48-20.48s9.216-20.48 20.48-20.48h378.88c11.264 0 20.48 9.216 20.48 20.48s-9.216 20.48-20.48 20.48z" p-id="4927"></path></svg>