<?xml version="1.0" standalone="no"?><!DOCTYPE svg PUBLIC "-//W3C//DTD SVG 1.1//EN" "http://www.w3.org/Graphics/SVG/1.1/DTD/svg11.dtd"><svg t="1615814328355" class="icon" viewBox="0 0 1204 1024" version="1.1" xmlns="http://www.w3.org/2000/svg" p-id="5783" xmlns:xlink="http://www.w3.org/1999/xlink" width="235.15625" height="200"><defs><style type="text/css"></style></defs><path d="M1098.330353 632.229647c-29.665882 0-61.650824 25.419294-102.369882 57.404235-37.195294 29.424941-82.130824 65.174588-117.187765 68.969412a75.203765 75.203765 0 0 0-19.546353-49.904941C817.814588 662.588235 725.323294 665.901176 663.883294 668.009412c-9.637647 0.210824-18.100706 0.692706-24.937412 0.692706-13.191529 0-30.599529-10.842353-52.464941-24.45553-51.079529-31.774118-128.301176-79.781647-282.654117-81.92a22.799059 22.799059 0 0 0-9.637648 1.897412v-69.632a21.564235 21.564235 0 0 0-21.895529-21.172706H21.895529a21.564235 21.564235 0 0 0-21.895529 21.172706V931.538824c0 11.745882 9.878588 21.172706 21.895529 21.172705h250.639059a21.564235 21.564235 0 0 0 21.865412-21.172705v-52.254118c22.136471 0 74.842353 24.244706 125.680941 47.525647 85.443765 39.062588 191.548235 87.552 276.992 87.552 147.576471 0 507.632941-181.187765 507.632941-276.239059 0.240941-67.312941-38.610824-105.893647-106.375529-105.893647zM250.639059 910.366118H43.760941v-33.430589h206.878118v33.430589z m0-75.776H43.760941V786.070588h206.878118v48.489412z m0-90.834824H43.760941v-48.218353h206.878118v48.218353z m0-90.593882H43.760941v-48.459294h206.878118v48.489411z m0-90.804706H43.760941v-46.592h206.878118v46.592z m446.644706 409.630118c-75.504941 0-176.700235-46.351059-258.138353-83.516236-62.825412-28.702118-112.489412-51.531294-144.504471-51.531294v-234.345412a29.214118 29.214118 0 0 0 8.944941 2.108236c141.673412 1.897412 209.92 44.242824 259.584 75.053176 28.009412 17.408 50.115765 31.081412 76.257883 31.081412 7.288471 0 16.233412-0.240941 26.593882-0.722824 46.592-1.656471 132.969412-4.698353 160.737882 26.112 6.324706 7.288471 9.155765 16.474353 8.704 28.250353H498.206118a21.564235 21.564235 0 0 0-21.865412 21.172706c0 11.745882 9.878588 21.172706 21.865412 21.172706h350.870588a22.497882 22.497882 0 0 0 15.570823-6.113882c53.639529 4.939294 109.417412-39.303529 159.081412-78.607059 26.804706-21.383529 60.476235-47.736471 74.601412-47.736471 43.309176 0 62.825412 19.757176 62.825412 63.759059 0 57.404235-326.415059 233.863529-463.841883 233.86353z m152.064-371.290353c60.476235 0 109.417412-47.525647 109.417411-106.104471s-49.182118-106.134588-109.417411-106.134588c-60.476235 0-109.447529 47.555765-109.44753 106.134588-0.240941 58.578824 48.971294 106.104471 109.44753 106.104471z m0-169.652706c36.231529 0 65.656471 28.491294 65.65647 63.789176 0 35.056941-29.424941 63.759059-65.65647 63.759059-36.261647 0-65.656471-28.461176-65.656471-63.759059-0.240941-35.297882 29.394824-63.789176 65.656471-63.789176z m-250.88-24.696471c60.476235 0 109.447529-47.525647 109.447529-106.10447 0-58.608941-49.212235-106.134588-109.447529-106.134589-60.476235 0-109.417412 47.525647-109.417412 106.134589 0 58.578824 49.182118 106.104471 109.417412 106.10447z m0-169.652706c36.231529 0 65.656471 28.491294 65.65647 63.548236s-29.424941 63.548235-65.65647 63.548235c-36.231529 0-65.656471-28.491294-65.656471-63.548235 0-34.846118 29.424941-63.548235 65.656471-63.548236z m250.88-24.455529c60.476235 0 109.417412-47.525647 109.417411-106.134588C958.765176 47.525647 909.583059 0 849.347765 0c-60.476235 0-109.447529 47.525647-109.44753 106.104471-0.240941 58.608941 48.971294 106.134588 109.44753 106.134588z m0-169.652706c36.231529 0 65.656471 28.461176 65.65647 63.759059 0 35.056941-29.424941 63.759059-65.65647 63.759059-36.261647 0-65.656471-28.461176-65.656471-63.759059-0.240941-35.297882 29.394824-63.759059 65.656471-63.759059z" p-id="5784"></path></svg>