<?xml version="1.0" standalone="no"?><!DOCTYPE svg PUBLIC "-//W3C//DTD SVG 1.1//EN" "http://www.w3.org/Graphics/SVG/1.1/DTD/svg11.dtd"><svg t="1615814324910" class="icon" viewBox="0 0 1024 1024" version="1.1" xmlns="http://www.w3.org/2000/svg" p-id="5635" xmlns:xlink="http://www.w3.org/1999/xlink" width="200" height="200"><defs><style type="text/css"></style></defs><path d="M511.5 445.43c-8.84 0-17.64-3.37-24.38-10.1l-79.72-79.72c-13.47-13.47-13.47-35.28 0-48.75 13.47-13.47 35.28-13.47 48.75 0l55.35 55.35 55.35-55.35c13.47-13.47 35.28-13.47 48.75 0 13.47 13.47 13.47 35.28 0 48.75l-79.72 79.72c-6.74 6.73-15.53 10.1-24.38 10.1z" fill="#0081FF" p-id="5636"></path><path d="M617.8 501.45H405.2c-19.03 0-34.48-15.44-34.48-34.48s15.44-34.48 34.48-34.48h212.6c19.03 0 34.48 15.44 34.48 34.48s-15.45 34.48-34.48 34.48zM644.38 607.75H378.63c-19.03 0-34.48-15.44-34.48-34.48 0-19.03 15.44-34.48 34.48-34.48h265.75c19.03 0 34.48 15.44 34.48 34.48-0.01 19.04-15.45 34.48-34.48 34.48z" fill="#0081FF" p-id="5637"></path><path d="M511.5 727.34c-19.03 0-34.48-15.44-34.48-34.48V453.69c0-19.03 15.44-34.48 34.48-34.48 19.03 0 34.48 15.44 34.48 34.48v239.17c0 19.03-15.44 34.48-34.48 34.48zM930.69 202.62l-84.26-84.21c-13.51-13.51-35.33-13.42-48.75 0-13.47 13.47-13.47 35.28 0 48.75l33.11 33.08h-182.1c-19.03 0-34.48 15.44-34.48 34.48s15.44 34.48 34.48 34.48h182.09l-33.11 33.08c-13.47 13.47-13.47 35.28 0 48.75 6.73 6.73 15.53 10.1 24.38 10.1 8.8 0 17.64-3.37 24.38-10.1l84.39-84.35c17.42-17.64 17.42-46.28-0.13-64.06z" fill="#0081FF" p-id="5638"></path><path d="M511.5 960.22c-247.12 0-448.18-201.06-448.18-448.18S264.38 63.87 511.5 63.87c19.03 0 34.48 15.44 34.48 34.48s-15.44 34.48-34.48 34.48c-209.1 0-379.23 170.13-379.23 379.23S302.41 891.27 511.5 891.27s379.23-170.13 379.23-379.23c0-12.79-0.67-25.41-1.93-37.89-1.93-18.94 11.85-35.87 30.79-37.8 19.35-2.11 35.87 11.9 37.8 30.79 1.53 14.81 2.29 29.76 2.29 44.89 0 247.13-201.06 448.19-448.18 448.19z" fill="#0081FF" p-id="5639"></path></svg>