<?xml version="1.0" standalone="no"?><!DOCTYPE svg PUBLIC "-//W3C//DTD SVG 1.1//EN" "http://www.w3.org/Graphics/SVG/1.1/DTD/svg11.dtd"><svg t="1615814204540" class="icon" viewBox="0 0 1024 1024" version="1.1" xmlns="http://www.w3.org/2000/svg" p-id="2235" xmlns:xlink="http://www.w3.org/1999/xlink" width="200" height="200"><defs><style type="text/css"></style></defs><path d="M874.7 64H149.3c-23.6 0-42.7 19.1-42.7 42.7v810.7c0 23.6 19.1 42.7 42.7 42.7h725.3c23.6 0 42.7-19.1 42.7-42.7V106.7c0-23.6-19.1-42.7-42.6-42.7z m0 832c0 11.8-9.6 21.3-21.3 21.3H170.7c-11.8 0-21.3-9.6-21.3-21.3V128c0-11.8 9.6-21.3 21.3-21.3h682.7c11.8 0 21.3 9.6 21.3 21.3v768z" fill="#000000" p-id="2236"></path><path d="M725.3 234.7H298.7c-11.8 0-21.3 9.6-21.3 21.3v170.7c0 11.8 9.6 21.3 21.3 21.3h426.7c11.8 0 21.3-9.6 21.3-21.3V256c0-11.8-9.6-21.3-21.4-21.3zM704 405.3H320v-128h384v128zM405.3 533.3H298.7c-11.8 0-21.3 9.6-21.3 21.3 0 11.8 9.6 21.3 21.3 21.3h106.7c11.8 0 21.3-9.6 21.3-21.3 0-11.7-9.6-21.3-21.4-21.3zM405.3 640H298.7c-11.8 0-21.3 9.6-21.3 21.3 0 11.8 9.6 21.3 21.3 21.3h106.7c11.8 0 21.3-9.6 21.3-21.3 0-11.7-9.6-21.3-21.4-21.3zM405.3 746.7H298.7c-11.8 0-21.3 9.6-21.3 21.3 0 11.8 9.6 21.3 21.3 21.3h106.7c11.8 0 21.3-9.6 21.3-21.3 0-11.8-9.6-21.3-21.4-21.3zM704 640c11.8 0 21.3-9.6 21.3-21.3 0-11.8-9.6-21.3-21.3-21.3h-37.5l46.3-46.3c8.3-8.3 8.3-21.8 0-30.2-8.3-8.3-21.8-8.3-30.2 0l-64 64-64-64c-8.3-8.3-21.8-8.3-30.2 0-8.3 8.3-8.3 21.8 0 30.2l46.3 46.3h-37.5c-11.8 0-21.3 9.6-21.3 21.3 0 11.8 9.6 21.3 21.3 21.3h64v42.7h-64c-11.8 0-21.3 9.6-21.3 21.3 0 11.8 9.6 21.3 21.3 21.3h64v64c0 11.8 9.6 21.3 21.3 21.3 11.8 0 21.3-9.6 21.3-21.3v-64h64c11.8 0 21.3-9.6 21.3-21.3 0-11.8-9.6-21.3-21.3-21.3h-64V640H704z" fill="#000000" p-id="2237"></path></svg>